<?xml version="1.0" ?><svg id="Layer_1" style="enable-background:new 0 0 242.9 242.9;" version="1.1" viewBox="0 0 242.9 242.9" xml:space="preserve" xmlns="http://www.w3.org/2000/svg" xmlns:xlink="http://www.w3.org/1999/xlink"><style type="text/css">
	.st0{fill:#EB2027;}
</style><path class="st0" d="M121.5,0L121.5,0C54.4,0,0,54.4,0,121.5v0c0,67.1,54.4,121.5,121.5,121.5h0c67.1,0,121.5-54.4,121.5-121.5v0  C242.9,54.4,188.5,0,121.5,0z M146.3,160.9c-1-2.3-25.2-57.5-25.3-57.6c0.3-0.2-16.6,38.8-16.8,38.8c6,0,11.9,0,17.8,0  c-0.1,0.1,7.2,17.5,7.7,18.8H67.3l0.1,0C67.5,161,106.2,68,106,68h29.5c0,0,40.1,93.2,40.1,92.9H146.3z"/></svg>